<?xml version="1.0" standalone="no"?>
<!DOCTYPE svg PUBLIC "-//W3C//DTD SVG 20010904//EN"
 "http://www.w3.org/TR/2001/REC-SVG-20010904/DTD/svg10.dtd">
<svg version="1.0" xmlns="http://www.w3.org/2000/svg"
 width="1024.000000pt" height="1024.000000pt" viewBox="0 0 1024.000000 1024.000000"
 preserveAspectRatio="xMidYMid meet">

<g transform="translate(0.000000,1024.000000) scale(0.100000,-0.100000)"
fill="#000000" stroke="none">
<path d="M4683 9169 c-136 -26 -247 -164 -246 -304 0 -88 34 -168 99 -232 32
-32 65 -56 83 -59 23 -5 31 -12 31 -28 0 -11 3 -45 6 -73 l7 -53 -46 0 c-73 0
-282 -46 -412 -90 -299 -102 -546 -258 -778 -494 -132 -134 -204 -225 -284
-359 -80 -136 -119 -219 -166 -357 -50 -149 -65 -231 -79 -427 -38 -544 92
-939 447 -1361 80 -96 242 -245 255 -237 4 3 23 32 43 65 l36 60 -89 75 c-256
219 -438 524 -510 853 -44 202 -51 501 -15 712 66 393 262 717 610 1010 225
189 494 320 780 380 128 27 340 36 470 21 251 -29 395 -70 611 -171 157 -74
251 -140 459 -324 l56 -49 17 24 c9 13 32 41 52 63 l35 39 -40 35 c-228 201
-446 335 -693 426 -175 65 -327 99 -502 112 -99 8 -100 8 -100 97 0 44 2 47
26 47 36 0 118 64 155 120 48 72 64 142 50 219 -29 157 -125 250 -271 264 -30
2 -74 1 -97 -4z m166 -158 c68 -49 94 -175 49 -241 -42 -61 -71 -75 -156 -75
-64 0 -82 4 -108 22 -42 30 -78 114 -69 161 14 73 57 132 115 155 8 4 42 5 75
4 45 -2 70 -9 94 -26z"/>
<path d="M7000 8539 c-25 -7 -72 -48 -160 -138 -69 -69 -142 -139 -163 -155
-20 -16 -81 -83 -136 -150 -54 -66 -138 -166 -187 -220 -112 -124 -154 -177
-232 -292 -47 -69 -121 -149 -296 -321 -128 -125 -266 -266 -306 -313 -99
-115 -478 -506 -925 -954 -382 -383 -442 -435 -600 -514 -74 -37 -86 -50 -120
-132 -33 -79 -99 -211 -130 -259 -51 -81 -138 -267 -205 -436 -39 -99 -96
-223 -126 -276 -67 -119 -69 -144 -14 -199 22 -22 48 -40 58 -40 10 0 51 21
92 47 41 25 114 63 161 84 47 20 122 55 165 77 237 119 580 232 703 232 50 0
57 10 105 141 36 101 107 242 159 319 17 24 187 200 377 390 190 190 372 375
405 411 33 35 140 147 236 249 161 170 246 262 517 560 175 193 493 522 747
775 151 150 267 273 289 307 20 32 63 86 95 120 74 79 101 132 101 196 0 99
-49 183 -189 323 -120 120 -211 170 -318 175 -37 2 -84 -1 -103 -7z m183 -169
c97 -62 267 -259 267 -310 0 -31 -57 -114 -137 -199 l-50 -53 -64 58 c-35 33
-99 93 -144 134 -44 41 -111 99 -148 129 -37 30 -67 57 -67 61 0 13 155 173
185 192 46 27 103 23 158 -12z m-395 -327 c107 -70 372 -327 372 -361 0 -12
-5 -22 -11 -22 -7 0 -55 40 -108 88 -53 48 -139 121 -191 161 -136 105 -192
161 -178 178 6 7 14 13 19 13 5 0 49 -26 97 -57z m-58 -217 c47 -39 136 -115
198 -170 l113 -99 -78 -81 -78 -81 -97 87 c-54 48 -144 122 -200 166 -113 87
-142 115 -137 131 2 6 33 44 68 85 l65 75 30 -21 c17 -12 69 -53 116 -92z
m-230 -278 c69 -58 161 -143 205 -187 76 -77 79 -82 66 -104 -8 -12 -20 -32
-26 -44 -11 -21 -16 -18 -129 80 -64 56 -147 126 -184 155 -128 101 -152 123
-152 136 0 8 15 32 33 54 26 32 35 37 47 28 8 -6 71 -59 140 -118z m-199 -175
c41 -38 119 -106 174 -153 129 -110 127 -108 123 -125 -2 -8 -61 -76 -133
-151 -71 -76 -202 -217 -290 -315 -237 -263 -384 -418 -854 -902 -356 -366
-428 -436 -445 -431 -74 24 -298 194 -381 290 -43 51 -45 55 -31 75 8 12 135
144 283 293 235 238 703 722 1093 1130 331 347 340 356 364 356 14 0 51 -25
97 -67z m-1909 -1881 c29 -26 69 -63 88 -81 32 -30 198 -170 260 -219 l24 -20
-41 -58 c-47 -68 -125 -220 -160 -314 -30 -80 -38 -90 -72 -90 -28 0 -229 -49
-316 -77 -124 -39 -382 -156 -453 -205 -39 -26 -27 -11 62 83 60 63 143 145
185 183 127 116 242 230 258 257 14 23 20 25 89 25 67 -1 76 1 100 26 71 70
-1 200 -112 202 -43 1 -49 -2 -85 -43 -22 -24 -42 -56 -45 -70 -3 -14 -8 -33
-12 -42 -7 -17 -180 -200 -435 -463 l-127 -131 39 85 c21 47 51 119 66 160 34
90 65 158 103 225 93 163 131 231 179 321 l54 100 106 65 c58 35 122 79 142
96 20 18 39 33 43 33 4 0 31 -22 60 -48z"/>
<path d="M4579 8133 c-4 -49 4 -330 10 -336 4 -4 30 -4 57 0 l49 9 -4 72 -3
72 28 -1 c25 0 36 -12 79 -77 l50 -77 45 3 c24 2 47 5 50 8 3 3 7 76 8 161 4
171 4 173 -56 173 l-33 0 7 -100 c4 -55 5 -100 2 -100 -3 0 -19 22 -35 48 -28
45 -93 104 -93 85 0 -5 -16 -17 -35 -26 -31 -15 -35 -15 -35 -1 0 8 12 26 26
39 39 36 19 55 -57 55 -33 0 -59 -3 -60 -7z"/>
<path d="M7451 7731 c-26 -4 -37 -13 -44 -35 -9 -26 -6 -32 26 -60 40 -34 60
-76 51 -103 -4 -10 -91 -101 -194 -203 -139 -138 -201 -207 -244 -272 -33 -52
-75 -102 -103 -123 -67 -51 -75 -48 -43 15 l20 40 -26 0 c-17 0 -46 -16 -81
-46 -86 -74 -102 -122 -58 -180 88 -116 242 -29 487 274 36 45 131 150 210
232 82 86 155 172 171 202 25 47 28 61 24 115 -7 94 -42 136 -122 146 -22 3
-55 2 -74 -2z"/>
<path d="M4707 7666 c-7 -8 -28 -85 -46 -173 -38 -185 -100 -435 -110 -446
-11 -11 -453 244 -563 325 -86 63 -128 82 -128 58 0 -14 21 -46 100 -155 37
-49 113 -164 170 -255 57 -91 119 -184 137 -207 18 -23 33 -44 33 -46 0 -5
-19 -10 -220 -53 -112 -24 -415 -105 -475 -126 -68 -25 -67 -49 3 -72 68 -23
482 -113 585 -127 53 -8 87 -18 87 -25 0 -6 -45 -81 -99 -165 -89 -138 -144
-217 -288 -421 -24 -33 -43 -67 -43 -74 0 -34 32 -23 97 32 67 57 125 97 297
204 48 30 131 83 183 118 77 52 97 61 109 51 18 -15 50 12 104 91 41 59 198
222 297 309 38 32 67 66 73 86 7 22 21 37 40 45 46 19 153 139 205 231 98 171
122 210 197 321 42 62 90 127 108 143 40 38 73 92 65 105 -13 21 -44 7 -140
-63 -55 -40 -129 -90 -165 -112 -36 -22 -137 -86 -224 -142 -87 -57 -162 -103
-166 -103 -4 0 -10 12 -13 28 -100 474 -133 598 -160 617 -26 19 -32 19 -50 1z
m53 -582 c12 -109 23 -206 26 -216 4 -13 -2 -16 -33 -15 -21 1 -55 -2 -75 -6
l-36 -8 14 58 c14 60 74 371 74 387 0 5 2 7 5 4 3 -3 14 -94 25 -204z m485
-16 c-30 -40 -89 -124 -131 -185 -41 -63 -82 -113 -91 -113 -16 0 -83 62 -83
77 0 11 76 77 170 148 36 27 92 71 124 97 33 27 61 48 63 48 2 0 -22 -33 -52
-72z m-926 -38 c46 -34 111 -79 145 -100 63 -39 66 -44 51 -107 -7 -29 -39
-47 -63 -34 -15 8 -207 261 -237 311 -7 12 -6 13 6 4 8 -6 52 -39 98 -74z
m507 -361 c101 -94 51 -244 -86 -257 -87 -8 -140 42 -140 133 0 103 55 159
148 152 38 -3 59 -10 78 -28z m-366 -99 l0 -80 -27 0 c-16 0 -107 13 -203 29
-96 16 -199 32 -228 36 -29 4 -52 9 -50 11 2 2 85 15 183 29 99 14 203 32 230
39 96 27 95 27 95 -64z m54 -269 c17 -18 16 -20 -16 -43 -18 -13 -88 -66 -156
-117 -68 -51 -125 -91 -127 -89 -2 2 41 59 96 128 54 69 99 128 99 132 0 5 20
8 43 8 30 0 49 -6 61 -19z"/>
<path d="M3222 6556 c2 -107 5 -197 8 -200 3 -3 69 -2 147 1 139 6 142 6 148
30 9 39 -3 65 -27 57 -11 -3 -55 -3 -99 1 l-79 7 0 34 0 34 54 0 c60 0 82 16
72 54 -6 26 -30 36 -92 36 -39 0 -40 1 -36 30 l4 30 99 0 99 0 0 40 0 40 -151
0 -150 0 3 -194z"/>
<path d="M6567 6680 c-35 -28 -45 -64 -57 -225 -30 -392 -115 -643 -318 -935
-81 -117 -330 -370 -457 -464 -101 -75 -290 -173 -410 -211 -109 -36 -256 -64
-376 -72 l-100 -6 -32 -64 c-40 -83 -36 -86 113 -79 285 13 518 86 780 244
306 184 699 644 836 977 58 142 108 394 120 604 7 126 -2 180 -37 225 -25 31
-29 32 -62 6z"/>
<path d="M5634 5672 c-31 -26 -58 -72 -48 -81 117 -100 183 -113 171 -34 -6
37 -72 133 -90 133 -7 -1 -21 -8 -33 -18z"/>
<path d="M6485 4904 c-16 -8 -38 -23 -47 -31 -18 -16 -24 -66 -12 -98 10 -25
58 -45 109 -45 40 0 52 5 76 31 78 84 -22 197 -126 143z"/>
<path d="M4356 4126 c-78 -17 -112 -60 -64 -81 46 -21 61 -67 68 -219 12 -243
7 -660 -8 -679 -8 -9 -12 -26 -10 -39 3 -22 7 -23 133 -30 112 -6 131 -5 147
9 43 39 -3 133 -66 133 l-32 0 3 193 c2 105 8 261 13 345 13 196 -6 340 -48
365 -20 13 -83 15 -136 3z"/>
<path d="M7650 4070 c-33 -33 -35 -65 -6 -116 32 -58 33 -85 1 -132 -14 -20
-25 -44 -25 -54 0 -24 35 -41 69 -33 41 9 111 72 132 119 22 50 24 127 4 166
-32 62 -133 92 -175 50z"/>
<path d="M2156 4023 c-200 -2 -304 -7 -313 -14 -17 -14 -17 -73 0 -87 6 -5 27
-13 45 -17 22 -4 33 -13 36 -28 12 -58 17 -268 10 -462 l-7 -215 -42 -11 c-35
-9 -44 -16 -48 -37 -3 -15 0 -38 6 -52 l12 -25 340 0 340 0 3 115 c3 130 -2
140 -68 140 -49 0 -60 -15 -60 -77 l0 -53 -160 0 -161 0 3 133 3 132 96 0 c80
0 100 -3 117 -19 17 -14 27 -16 49 -9 l28 10 -2 103 c-3 111 -7 120 -56 120
-23 0 -31 -7 -43 -35 l-14 -35 -90 0 -90 0 0 145 0 146 147 -3 148 -3 8 -52
c8 -49 11 -53 41 -59 19 -3 44 -4 57 -2 23 3 24 6 27 114 2 92 0 115 -13 128
-9 9 -24 15 -33 14 -9 -2 -152 -4 -316 -5z"/>
<path d="M4961 3765 c-130 -37 -211 -130 -247 -282 -40 -170 29 -321 179 -389
55 -25 73 -29 162 -29 93 0 105 2 167 33 76 37 111 75 159 168 60 119 50 268
-25 366 -84 110 -263 170 -395 133z m171 -141 c32 -17 71 -66 93 -117 43 -103
-9 -233 -117 -288 -67 -34 -141 -17 -193 44 -73 85 -84 197 -27 279 64 93 158
125 244 82z"/>
<path d="M8070 3761 c-129 -46 -186 -190 -119 -300 22 -37 106 -81 212 -112
83 -24 120 -52 120 -94 0 -47 -64 -72 -151 -59 -37 6 -55 16 -89 50 -63 65
-108 55 -123 -27 -17 -91 40 -134 196 -150 167 -17 256 18 308 122 52 105 24
199 -76 250 -21 10 -81 35 -135 54 -119 43 -138 58 -122 103 14 40 35 52 94
52 50 0 89 -16 119 -49 40 -44 98 -10 112 65 8 44 -4 58 -74 85 -82 31 -201
35 -272 10z"/>
<path d="M3830 3756 c-60 -13 -90 -27 -110 -50 -19 -24 -40 -19 -40 9 0 36
-27 45 -134 45 -86 0 -95 -2 -101 -20 -4 -11 -1 -36 5 -55 9 -28 17 -34 42
-37 25 -2 33 -9 41 -33 8 -28 3 -299 -12 -629 l-6 -139 -42 -16 c-36 -12 -43
-20 -43 -41 0 -14 5 -31 12 -38 14 -14 244 -17 281 -3 26 10 53 62 43 86 -3 8
-21 25 -41 36 l-35 21 0 118 0 119 66 -35 c76 -40 140 -44 236 -18 84 24 135
73 194 186 26 51 50 95 54 98 26 19 33 131 10 154 -4 4 -6 15 -3 22 4 12 -7
18 -28 16 -4 -1 -25 28 -48 63 -47 72 -108 120 -179 141 -54 17 -88 17 -162 0z
m119 -140 c53 -28 89 -80 96 -140 12 -96 -1 -162 -43 -208 -64 -71 -125 -86
-205 -48 -91 44 -92 44 -96 178 -4 137 8 177 62 211 39 25 143 29 186 7z"/>
<path d="M6015 3765 c-5 -2 -30 -9 -54 -15 -30 -8 -61 -28 -99 -63 l-55 -52 5
53 c7 69 0 72 -144 72 -123 0 -138 -5 -138 -51 0 -32 27 -55 81 -69 l37 -10 7
-194 c4 -106 5 -202 1 -212 -3 -11 -29 -30 -61 -44 -58 -26 -68 -46 -45 -91 9
-16 22 -19 93 -19 105 1 267 16 277 27 4 4 10 22 13 40 6 32 6 32 -47 43 -42
9 -55 16 -60 33 -10 38 -6 273 5 305 7 19 29 43 57 63 45 29 51 31 120 26 71
-5 73 -5 86 21 20 41 29 112 15 128 -10 13 -69 18 -94 9z"/>
<path d="M6425 3761 c-40 -10 -92 -37 -136 -72 -72 -57 -118 -191 -105 -312
13 -127 115 -268 218 -303 154 -51 418 26 418 122 0 48 -91 84 -121 48 -24
-29 -71 -46 -143 -51 -67 -5 -73 -4 -113 26 -46 33 -68 67 -78 122 l-7 36 227
6 c161 4 231 10 242 19 12 10 14 27 11 78 -9 121 -66 207 -170 260 -53 26 -71
30 -137 29 -42 -1 -89 -4 -106 -8z m192 -138 c31 -22 59 -84 50 -108 -5 -13
-31 -15 -158 -15 l-151 0 6 23 c3 12 6 29 6 38 0 19 46 67 75 80 36 16 142 5
172 -18z"/>
<path d="M7325 3741 c-33 -15 -71 -41 -85 -56 l-25 -27 -5 49 -5 48 -85 3
c-47 2 -100 0 -117 -3 -31 -6 -33 -8 -33 -49 0 -47 9 -56 61 -56 l29 0 -7
-222 c-3 -123 -10 -228 -15 -235 -5 -6 -22 -13 -36 -15 -23 -2 -28 -9 -30 -36
-2 -22 3 -41 13 -53 16 -17 29 -18 149 -13 180 7 176 6 176 53 0 36 -3 40 -30
46 -55 12 -59 22 -54 157 6 147 18 199 54 238 22 24 37 30 68 30 23 0 53 -5
68 -10 31 -12 60 -6 68 15 2 7 8 40 12 73 5 47 3 62 -11 75 -26 26 -91 21
-160 -12z"/>
<path d="M2647 3741 c-6 -26 7 -46 49 -71 38 -24 214 -236 214 -258 0 -7 -18
-34 -39 -60 -22 -26 -59 -72 -83 -102 -32 -40 -56 -59 -88 -70 -54 -19 -62
-45 -27 -85 l23 -28 89 9 c83 8 89 11 95 34 4 14 28 56 54 93 25 38 46 72 46
78 0 17 19 9 45 -18 45 -47 72 -96 78 -141 3 -24 8 -46 11 -49 3 -3 55 -2 116
2 95 6 112 10 121 27 9 17 0 30 -70 96 -82 79 -201 217 -201 234 0 35 151 206
212 240 42 24 56 51 38 73 -10 12 -38 15 -121 15 l-109 0 0 -54 c0 -50 -3 -58
-46 -105 -25 -28 -50 -51 -55 -51 -11 0 -97 115 -112 150 -24 56 -33 60 -137
60 -87 0 -98 -2 -103 -19z"/>
<path d="M4481 2576 c-21 -22 -22 -27 -11 -87 7 -35 9 -89 6 -119 -3 -30 -6
-126 -8 -214 -2 -177 1 -186 69 -186 56 0 60 16 67 290 3 135 8 255 12 267 4
16 -1 29 -21 48 -36 33 -84 33 -114 1z"/>
<path d="M4978 2588 c-16 -5 -28 -14 -28 -20 0 -5 -18 -49 -39 -96 -80 -176
-180 -411 -187 -436 -9 -37 11 -56 60 -56 57 0 82 21 102 85 l18 55 102 0 103
0 21 -57 c11 -32 28 -64 37 -70 21 -16 97 -16 143 0 41 14 55 55 22 64 -19 5
-139 214 -157 272 -4 14 -32 75 -61 136 -39 81 -61 115 -79 123 -14 7 -27 12
-28 11 -1 0 -14 -5 -29 -11z m73 -290 c16 -32 26 -58 22 -59 -5 0 -37 -1 -73
-2 l-65 -2 35 70 c21 42 38 66 43 60 4 -5 21 -36 38 -67z"/>
<path d="M5492 2593 l-34 -4 3 -92 c2 -51 -1 -179 -5 -285 -11 -231 -10 -232
87 -232 l60 0 -7 48 c-3 26 -9 71 -12 100 l-7 52 39 0 c50 -1 72 -18 136 -109
63 -88 74 -96 119 -87 76 14 76 32 0 146 l-50 74 34 32 c40 37 50 67 50 156 0
58 -4 72 -30 110 -50 71 -92 87 -231 92 -66 2 -134 2 -152 -1z m259 -142 c42
-42 41 -99 -2 -135 -26 -23 -40 -26 -100 -26 l-69 0 0 95 0 95 71 0 c65 0 73
-2 100 -29z"/>
<path d="M6050 2593 c-57 -11 -67 -57 -24 -114 14 -19 57 -87 96 -152 l70
-118 7 -109 c3 -59 10 -112 14 -117 5 -4 29 -7 55 -6 68 2 75 17 68 135 -7 96
-6 98 25 155 18 32 44 74 59 93 40 54 110 177 110 194 0 21 -32 36 -77 36 -37
0 -39 -2 -87 -86 -27 -48 -62 -102 -79 -121 l-30 -34 -58 108 c-56 103 -88
145 -113 142 -6 -1 -22 -4 -36 -6z"/>
<path d="M3751 2577 c-11 -13 -11 -29 -1 -85 9 -47 11 -138 8 -282 -5 -242 -6
-240 70 -239 217 2 298 23 375 97 92 88 116 212 64 326 -40 86 -73 123 -143
157 -60 30 -71 32 -211 36 -128 5 -150 4 -162 -10z m297 -126 c100 -52 140
-157 93 -249 -39 -76 -87 -102 -186 -102 l-64 0 -3 178 c-2 97 -2 180 0 185 7
15 123 7 160 -12z"/>
<path d="M3215 2339 c-33 -5 -71 -7 -85 -5 -14 3 -182 1 -375 -5 -328 -9 -351
-11 -367 -29 -17 -21 -14 -55 6 -68 6 -4 191 -8 411 -9 220 -1 435 -5 478 -9
72 -6 79 -5 102 16 30 28 32 59 7 90 -22 27 -85 34 -177 19z"/>
<path d="M6947 2344 c-42 -13 -41 -91 2 -113 31 -17 770 -20 798 -4 27 16 37
46 24 72 -18 32 -97 41 -366 40 -137 -1 -293 1 -345 4 -52 3 -103 3 -113 1z"/>
</g>
</svg>
